<svg width="47" height="46" viewBox="0 0 47 46" fill="none" xmlns="http://www.w3.org/2000/svg">
<rect x="3" y="41" width="32" height="5" fill="white"/>
<rect x="28" y="1" width="4" height="40" fill="white"/>
<rect x="5" y="1" width="4" height="40" fill="white"/>
<rect x="6" width="25" height="4" fill="white"/>
<rect y="41" width="3" height="5" fill="white"/>
<rect x="35" y="41" width="2" height="5" fill="white"/>
<rect x="32" y="17" width="5" height="4" fill="white"/>
<rect x="35" y="18" width="3" height="19" fill="white"/>
<rect x="35" y="20" width="4" height="18" fill="white"/>
<rect x="37" y="37" width="8" height="3" fill="white"/>
<rect x="38" y="40" width="6" height="1" fill="white"/>
<rect x="42" y="19" width="5" height="20" fill="white"/>
<rect x="44" y="17" width="3" height="2" fill="white"/>
<rect x="45" y="15" width="2" height="2" fill="white"/>
<rect x="42" y="18" width="2" height="1" fill="white"/>
<rect x="35" y="7" width="3" height="3" fill="white"/>
<rect x="36" y="8" width="3" height="3" fill="white"/>
<rect x="38" y="11" width="7" height="2" fill="white"/>
<rect x="39" y="13" width="6" height="1" fill="white"/>
<rect x="41" y="14" width="3" height="1" fill="white"/>
<rect x="39" y="10" width="6" height="1" fill="white"/>
</svg>
